<?xml version="1.0" encoding="UTF-8" standalone="no"?>
<!-- Created with Inkscape (http://www.inkscape.org/) -->

<svg
   xmlns:dc="http://purl.org/dc/elements/1.1/"
   xmlns:cc="http://creativecommons.org/ns#"
   xmlns:rdf="http://www.w3.org/1999/02/22-rdf-syntax-ns#"
   xmlns:svg="http://www.w3.org/2000/svg"
   xmlns="http://www.w3.org/2000/svg"
   xmlns:sodipodi="http://sodipodi.sourceforge.net/DTD/sodipodi-0.dtd"
   xmlns:inkscape="http://www.inkscape.org/namespaces/inkscape"
   width="176.8mm"
   height="137.00999mm"
   viewBox="0 0 176.8 137.00999"
   version="1.1"
   id="svg8"
   inkscape:version="0.92.1 r15371"
   sodipodi:docname="gear.svg">
  <defs
     id="defs2" />
  <sodipodi:namedview
     id="base"
     pagecolor="#ffffff"
     bordercolor="#666666"
     borderopacity="1.0"
     inkscape:pageopacity="0.0"
     inkscape:pageshadow="2"
     inkscape:zoom="0.7"
     inkscape:cx="115.16082"
     inkscape:cy="250.27157"
     inkscape:document-units="mm"
     inkscape:current-layer="layer1"
     showgrid="false"
     inkscape:window-width="1366"
     inkscape:window-height="659"
     inkscape:window-x="0"
     inkscape:window-y="31"
     inkscape:window-maximized="1"
     inkscape:pagecheckerboard="true"
     borderlayer="true"
     showborder="false" />
  <metadata
     id="metadata5">
    <rdf:RDF>
      <cc:Work
         rdf:about="">
        <dc:format>image/svg+xml</dc:format>
        <dc:type
           rdf:resource="http://purl.org/dc/dcmitype/StillImage" />
        <dc:title></dc:title>
      </cc:Work>
    </rdf:RDF>
  </metadata>
  <g
     inkscape:label="Layer 1"
     inkscape:groupmode="layer"
     id="layer1"
     transform="translate(0,-159.99)">
    <g
       id="g3792"
       transform="translate(-4.618921,96.527786)">
      <path
         inkscape:connector-curvature="0"
         id="path3725"
         d="m 54.544523,200.44107 c -0.482769,-0.0215 -0.881506,-0.0483 -0.886084,-0.0601 -0.0045,-0.012 -0.248376,-2.54087 -0.541772,-5.6205 -0.293395,-3.07965 -0.549217,-5.61476 -0.56849,-5.63361 -0.01938,-0.0191 -0.576747,-0.13066 -1.238828,-0.24858 -1.947328,-0.34672 -3.949503,-0.86255 -6.091946,-1.5695 -1.666798,-0.55 -2.027324,-0.63914 -2.129975,-0.52667 -0.06796,0.0744 -1.649942,2.07652 -3.51551,4.44898 -1.865565,2.37248 -3.41014,4.33519 -3.43239,4.36161 -0.06401,0.0761 -3.766182,-1.81758 -5.093902,-2.60546 -1.714528,-1.01742 -3.557022,-2.23977 -3.559276,-2.36129 -0.0011,-0.057 0.924411,-2.10815 2.056595,-4.55821 1.132183,-2.45004 2.046308,-4.48564 2.031388,-4.52352 -0.01484,-0.0378 -1.709652,-1.94632 -3.766067,-4.24093 l -3.738939,-4.17206 -0.725099,0.33633 c -0.398805,0.18497 -2.523147,1.22165 -4.72076,2.30371 -2.197613,1.08207 -4.036141,1.9674 -4.085613,1.9674 -0.113809,0 -1.239815,-1.67664 -2.223238,-3.31041 -0.711845,-1.1826 -2.6863433,-5.00828 -2.6863433,-5.20491 0,-0.05 1.8744933,-1.66266 4.1655433,-3.58378 2.291048,-1.92114 4.148166,-3.5397 4.126928,-3.59677 -0.0213,-0.0572 -0.5701,-2.2932 -1.219694,-4.96911 -0.649592,-2.67593 -1.191683,-4.8782 -1.204648,-4.89397 -0.01292,-0.0167 -2.419808,-0.31075 -5.348547,-0.65553 -2.928738,-0.34478 -5.361029,-0.66292 -5.4050883,-0.70698 -0.1070852,-0.10696 -0.1705945,-6.66364 -0.081768,-8.4407 l 0.070353,-1.40728 5.3886773,-0.69525 5.38868,-0.69528 1.286599,-5.1527 c 0.725303,-2.90477 1.247854,-5.18697 1.197791,-5.23126 -0.04884,-0.0433 -1.939622,-1.46964 -4.201738,-3.16982 -2.262115,-1.70017 -4.1279506,-3.10264 -4.1463046,-3.11659 -0.018426,-0.0144 0.4660566,-1.01098 1.0764656,-2.21565 1.137729,-2.24534 2.306011,-4.2013 3.667783,-6.14073 l 0.771622,-1.09892 0.719634,0.38608 c 0.395799,0.21225 2.636645,1.40333 4.97966,2.64662 l 4.260025,2.26051 0.303852,-0.3727 c 1.172117,-1.43779 4.364296,-4.64688 5.636432,-5.6663 0.350428,-0.28082 0.634715,-0.55888 0.63175,-0.61796 -0.0029,-0.0591 -1.012059,-2.43222 -2.242431,-5.27365 l -2.237041,-5.16624 1.013566,-0.68268 c 1.85848,-1.251768 4.200525,-2.597454 6.521086,-3.746872 1.263581,-0.625875 2.350025,-1.137955 2.414319,-1.137955 0.0643,0 1.513264,2.062451 3.219929,4.583227 1.706665,2.52077 3.128098,4.6196 3.158735,4.66406 0.03063,0.0445 0.73034,-0.14645 1.554891,-0.42418 1.780421,-0.59977 3.622559,-1.09475 5.410537,-1.45382 0.716733,-0.14394 1.319899,-0.27846 1.340366,-0.29893 0.02058,-0.0206 0.470175,-2.58385 0.999345,-5.696401 l 0.962133,-5.659192 1.108227,-0.06387 c 1.354844,-0.07808 7.950128,-0.08349 8.235784,-0.0067 0.188541,0.05066 0.288158,0.523174 1.189153,5.641376 0.540848,3.072357 0.997593,5.601267 1.01499,5.619817 0.01747,0.0184 0.67854,0.14314 1.469206,0.27688 1.911785,0.32337 4.309149,0.92475 6.145199,1.54146 0.823639,0.27668 1.50534,0.49226 1.51489,0.4791 0.398218,-0.54871 6.743495,-8.808222 6.861703,-8.931726 0.165401,-0.172819 0.265207,-0.134317 2.381158,0.918382 2.302175,1.145352 4.280983,2.275983 6.024784,3.442384 1.018606,0.68132 1.024943,0.68807 0.903308,0.96139 -0.06736,0.15138 -1.122219,2.44207 -2.344105,5.09038 l -2.221614,4.81515 0.471342,0.45141 c 0.25924,0.2483 0.913383,0.83515 1.45365,1.30412 1.312515,1.13932 3.924989,3.81779 4.965548,5.09101 0.462191,0.56553 0.875181,1.02823 0.917752,1.02823 0.04257,0 2.27711,-1.17731 4.965654,-2.61625 2.688525,-1.43894 4.915745,-2.57763 4.949315,-2.53041 1.43734,2.02109 2.78023,4.26639 3.95085,6.6058 l 0.95601,1.91057 -4.39289,3.44371 -4.392888,3.44374 0.188568,0.66465 c 1.30795,4.60983 2.48276,8.65849 2.52461,8.70032 0.0287,0.0287 2.49392,0.47 5.47805,0.98051 2.98412,0.51052 5.46034,0.96284 5.50269,1.00517 0.089,0.0888 0.10673,9.64401 0.0191,9.73266 -0.0323,0.0323 -2.44185,0.35031 -5.35447,0.70655 -2.9126,0.35622 -5.31798,0.66996 -5.34523,0.69724 -0.0804,0.0804 -2.53412,9.62785 -2.50751,9.75681 0.0144,0.0649 1.94284,1.56974 4.28774,3.34431 2.3449,1.77458 4.27707,3.26341 4.29373,3.30852 0.0512,0.13879 -2.16817,4.49123 -2.96725,5.81897 -0.58411,0.97051 -1.79371,2.85557 -1.98443,3.09255 -0.0144,0.0191 -2.20862,-0.94561 -4.875663,-2.14156 -2.667007,-1.19598 -4.897248,-2.19428 -4.956091,-2.21845 -0.08708,-0.0359 -7.653601,7.86364 -7.744809,8.08557 -0.01484,0.0364 0.958279,2.18822 2.162738,4.78186 l 2.189926,4.71572 -1.159585,0.76448 c -1.813425,1.19552 -3.402617,2.10966 -5.523303,3.17709 l -1.956153,0.98461 -3.51104,-4.30896 c -1.931072,-2.36992 -3.56651,-4.35527 -3.634308,-4.41189 -0.157577,-0.13161 -0.718851,-0.002 -2.697922,0.62437 -1.821843,0.57635 -4.111752,1.11862 -5.958525,1.41102 l -1.356371,0.21464 -0.374267,5.57202 c -0.205843,3.06463 -0.400499,5.59825 -0.43256,5.63031 -0.06571,0.0658 -8.341102,0.0991 -9.696992,0.0393 z m 7.369917,-22.09986 c 4.451188,-0.28836 8.988977,-1.63268 13.069355,-3.87175 1.569833,-0.86144 3.449694,-2.10507 4.764985,-3.15228 1.286163,-1.02402 3.788228,-3.51708 4.843124,-4.82572 2.250947,-2.79235 4.442467,-6.84034 5.538122,-10.22954 1.256687,-3.88733 1.723064,-7.75565 1.47841,-12.26258 -0.162626,-2.9959 -0.590929,-5.33751 -1.47841,-8.08277 -1.095655,-3.38918 -3.287175,-7.43717 -5.538122,-10.22952 -1.054054,-1.30759 -3.558169,-3.80299 -4.832868,-4.81608 -3.833537,-3.04675 -8.148685,-5.1488 -12.891809,-6.28 -3.237701,-0.77219 -6.623461,-1.01529 -10.476343,-0.75223 -6.312409,0.431 -12.608939,2.92112 -17.781696,7.03223 -1.274699,1.01309 -3.778815,3.50849 -4.832868,4.81608 -2.250947,2.79235 -4.442468,6.84034 -5.538122,10.22952 -1.256688,3.88732 -1.723064,7.75567 -1.47841,12.26261 0.162626,2.99589 0.590928,5.33748 1.47841,8.08274 1.095654,3.3892 3.287175,7.43719 5.538122,10.22954 1.054895,1.30864 3.55696,3.8017 4.843124,4.82572 2.826068,2.25009 6.419298,4.23034 9.739855,5.36771 1.590403,0.54476 4.129569,1.17837 5.65691,1.41159 2.082319,0.31795 5.251856,0.41618 7.898231,0.24473 z m -6.592474,-2.56354 c -5.217683,-0.63323 -10.4184,-2.82209 -14.896843,-6.26971 -1.131258,-0.87087 -3.792728,-3.50816 -4.753056,-4.70988 -2.265171,-2.83454 -4.29284,-6.71799 -5.318646,-10.18642 -0.887671,-3.00138 -1.16363,-5.0225 -1.16363,-8.5224 0,-3.49993 0.275959,-5.52105 1.16363,-8.5224 1.025806,-3.46844 3.053475,-7.35189 5.318646,-10.18645 0.960328,-1.2017 3.621798,-3.83901 4.753056,-4.70988 4.53592,-3.49186 9.714655,-5.65479 15.027281,-6.27625 1.695047,-0.19837 5.768369,-0.19837 7.463416,0 5.312626,0.62146 10.491361,2.78439 15.027281,6.27625 1.131257,0.87087 3.792727,3.50818 4.753055,4.70988 2.265171,2.83456 4.29284,6.71801 5.318647,10.18645 0.88767,3.00135 1.163629,5.02247 1.163629,8.5224 0,3.4999 -0.275959,5.52102 -1.163629,8.5224 -1.025807,3.46843 -3.053476,7.35188 -5.318647,10.18642 -0.960328,1.20172 -3.621798,3.83901 -4.753055,4.70988 -4.53592,3.49186 -9.714655,5.65481 -15.027281,6.27627 -1.600415,0.18713 -6.028767,0.1833 -7.593854,-0.007 z M 43.104753,161.914 c 0.1755,-0.0964 0.445644,-0.28871 0.600328,-0.42702 0.154681,-0.13831 1.20665,-1.06372 2.337706,-2.05647 1.131057,-0.99274 2.10161,-1.85304 2.156782,-1.91176 0.05518,-0.0586 0.461452,-0.41941 0.902839,-0.80157 0.44139,-0.38213 1.208802,-1.06049 1.705363,-1.50745 0.496562,-0.44696 1.737965,-1.54719 2.758675,-2.44496 1.02071,-0.8978 2.013833,-1.77453 2.206941,-1.94831 0.193112,-0.17373 1.118371,-0.99253 2.056143,-1.81939 5.103486,-4.49995 5.177519,-4.57461 5.303949,-5.34842 0.04927,-0.30154 0.219435,-0.51471 0.939468,-1.17698 1.247269,-1.14717 3.515496,-3.23811 3.978281,-3.66732 0.47799,-0.44332 0.575759,-0.28529 -1.32039,-2.13431 l -1.429505,-1.39397 -0.219052,0.19024 c -0.120462,0.10457 -0.31187,0.28677 -0.42533,0.40484 -0.113451,0.11798 -1.14194,1.0999 -2.285514,2.18186 -1.628561,1.54083 -2.136997,1.96721 -2.345773,1.96721 -0.62858,0 -1.077246,0.25296 -2.279567,1.28528 -0.671196,0.57628 -1.242928,1.07832 -1.270514,1.11563 -0.02759,0.0373 -0.817571,0.74136 -1.75552,1.56457 -0.937951,0.82318 -1.727933,1.52238 -1.755522,1.55375 -0.05619,0.0639 -3.744016,3.32244 -5.163561,4.56247 -0.505284,0.44139 -1.527083,1.34423 -2.270663,2.00631 -0.743578,0.66209 -2.275441,2.01605 -3.404136,3.00885 -2.37463,2.08867 -2.879352,2.57882 -3.010398,2.9235 -0.17191,0.45218 -0.115197,1.65823 0.09368,1.99258 0.434304,0.69511 1.54173,1.84038 1.917842,1.98341 0.363539,0.13831 1.66221,0.0708 1.977421,-0.10242 z m 33.853413,-19.79395 c 1.106464,-0.558 2.419434,-1.91481 2.954221,-3.05288 0.289905,-0.61695 0.318173,-1.50419 0.06504,-2.04129 -0.238267,-0.50556 -1.496797,-1.73646 -1.984158,-1.9406 -0.485319,-0.2034 -1.664694,-0.54885 -2.181862,-0.63931 l -0.376181,-0.0658 v -0.51619 c 0,-0.46612 -0.05506,-0.59393 -0.567798,-1.318 -2.039524,-2.88017 -3.58855,-4.32282 -5.500613,-5.12283 -0.687982,-0.28785 -0.736435,-0.2935 -2.507887,-0.29233 -1.994919,0.001 -2.136841,0.0282 -4.615184,0.8721 -1.379868,0.4699 -1.956154,0.73586 -1.956154,0.90279 0,0.162 0.72516,1.26081 0.873308,1.32321 0.06652,0.028 0.405084,0.005 0.752368,-0.0534 0.347283,-0.0574 1.353695,-0.10744 2.236469,-0.11103 1.966096,-0.007 2.802279,0.18904 3.461235,0.81581 0.392121,0.37301 0.400913,0.39656 0.400977,1.07403 l 6.5e-5,0.69267 -0.953063,0.91524 c -0.524184,0.50338 -0.953061,0.95536 -0.953061,1.00437 0,0.0491 0.698744,0.78676 1.552762,1.63945 l 1.552761,1.55035 0.356988,-0.34602 c 0.329784,-0.31963 0.41291,-0.34883 1.090821,-0.38304 1.447107,-0.073 1.929746,0.49448 2.260009,2.65762 0.0537,0.35174 0.205173,0.79339 0.351735,1.02555 0.3074,0.48697 1.119996,1.15301 1.813156,1.48618 0.598029,0.28742 1.20101,0.26277 1.874056,-0.0766 z"
         style="fill:#ff0000;stroke-width:0.10031546" />
      <path
         inkscape:connector-curvature="0"
         id="path3774"
         d="m 132.18477,151.31164 c -0.0429,-0.21679 -0.0741,-0.39685 -0.0694,-0.40016 0.004,-0.003 1.1019,-0.38569 2.43831,-0.84959 1.33638,-0.464 2.43494,-0.85229 2.4412,-0.86293 0.006,-0.0104 -0.004,-0.27041 -0.0238,-0.57729 -0.0569,-0.90269 -0.0447,-1.84807 0.0373,-2.87647 0.0638,-0.80009 0.0643,-0.96992 0.003,-1.00333 -0.0404,-0.0221 -1.10127,-0.50804 -2.35738,-1.07981 -1.25611,-0.57177 -2.29543,-1.04532 -2.30957,-1.05235 -0.0407,-0.0202 0.39945,-1.87009 0.60563,-2.5453 0.26625,-0.87193 0.60968,-1.82292 0.66343,-1.83708 0.025,-0.007 1.03672,0.18228 2.24785,0.41982 1.21113,0.23755 2.2145,0.42313 2.22972,0.4124 0.0151,-0.0112 0.67944,-0.97041 1.47607,-2.1326 l 1.44842,-2.11308 -0.22798,-0.2857 c -0.12542,-0.15712 -0.8161,-0.98858 -1.53491,-1.84768 -0.71882,-0.85908 -1.31132,-1.57995 -1.31668,-1.60194 -0.0121,-0.0506 0.61054,-0.73244 1.22983,-1.34635 0.44826,-0.44437 1.93395,-1.73603 2.0213,-1.75734 0.022,-0.006 0.94174,0.65263 2.04345,1.46232 1.1017,0.8097 2.02196,1.45939 2.04503,1.44377 0.0233,-0.0149 0.95702,-0.50172 2.07545,-1.08023 1.11843,-0.57849 2.0381,-1.05792 2.0437,-1.06539 0.006,-0.008 -0.12411,-1.1087 -0.28824,-2.44719 -0.16413,-1.33848 -0.28631,-2.45352 -0.27151,-2.47787 0.0361,-0.0591 2.94194,-0.79771 3.74105,-0.95081 l 0.6328,-0.12122 0.8927,2.31867 0.8927,2.31866 2.42855,0.0133 c 1.36906,0.008 2.43957,-0.008 2.45383,-0.0346 0.0139,-0.0263 0.44275,-1.02093 0.95301,-2.2101 0.51024,-1.18917 0.93116,-2.17004 0.93537,-2.17971 0.004,-0.01 0.49964,0.0975 1.10096,0.2382 1.12078,0.26219 2.11633,0.56929 3.12547,0.96416 l 0.57181,0.22375 -0.0936,0.36153 c -0.0515,0.19886 -0.33778,1.3234 -0.63629,2.49902 l -0.54273,2.13748 0.1985,0.0946 c 0.76574,0.36496 2.53726,1.43545 3.12798,1.89017 0.16273,0.12525 0.31707,0.22143 0.34298,0.21372 0.026,-0.008 0.9709,-0.71313 2.09994,-1.56759 l 2.05282,-1.55355 0.4131,0.37632 c 0.75746,0.69005 1.60904,1.58474 2.3711,2.49115 0.41494,0.49355 0.76015,0.92074 0.76712,0.94931 0.006,0.0288 -0.75232,0.89573 -1.68731,1.92705 -0.93498,1.03131 -1.71342,1.89019 -1.72985,1.90861 -0.0164,0.0184 0.14415,0.30861 0.3569,0.64483 0.45935,0.726 0.87883,1.49076 1.23206,2.24619 0.14156,0.30284 0.26674,0.55621 0.278,0.5631 0.0117,0.007 1.19884,-0.071 2.63897,-0.17318 l 2.61841,-0.18567 0.14923,0.48516 c 0.18107,0.59358 0.89842,3.52291 0.89527,3.65813 -0.002,0.0893 -0.2012,0.1847 -2.37742,1.13949 -1.30634,0.57315 -2.38036,1.05005 -2.38672,1.05978 -0.006,0.009 0.01,0.31695 0.0362,0.68272 0.0635,0.88437 0.056,2.01458 -0.019,2.89709 -0.0337,0.39589 -0.0556,0.7221 -0.0487,0.72491 0.28693,0.11746 4.64378,2.04159 4.71145,2.08073 0.0947,0.0548 0.0884,0.10328 -0.15002,1.15736 -0.25942,1.14686 -0.54733,2.14847 -0.87659,3.04954 -0.19233,0.52634 -0.19464,0.52989 -0.32925,0.50548 -0.0746,-0.0136 -1.2065,-0.234 -2.51544,-0.48991 l -2.37988,-0.46531 -0.14949,0.25831 c -0.0822,0.14207 -0.27205,0.49626 -0.42188,0.7871 -0.36395,0.70653 -1.27086,2.15734 -1.72377,2.75757 -0.20117,0.2666 -0.36199,0.50021 -0.35738,0.51912 0.005,0.0188 0.76975,0.88409 1.70029,1.92261 0.93055,1.03851 1.67771,1.90458 1.66038,1.92462 -0.74218,0.85752 -1.59419,1.69738 -2.50668,2.47088 l -0.74521,0.63172 -2.00585,-1.5785 -2.00587,-1.57847 -0.27485,0.15575 c -1.90628,1.0805 -3.57767,2.04106 -3.59172,2.06417 -0.01,0.0159 0.0614,1.15887 0.15789,2.5399 0.0965,1.38105 0.16382,2.53014 0.14959,2.55354 -0.0298,0.0491 -4.2729,1.09228 -4.32188,1.06254 -0.0179,-0.0109 -0.42026,-1.04686 -0.89401,-2.30225 -0.47378,-1.25537 -0.87379,-2.28998 -0.88885,-2.29912 -0.0445,-0.0271 -4.55186,-0.0827 -4.60627,-0.0569 -0.0273,0.013 -0.48689,1.0332 -1.02122,2.2672 -0.53432,1.234 -0.98642,2.25369 -1.00466,2.26597 -0.0562,0.0379 -2.23019,-0.47664 -2.90663,-0.68779 -0.49445,-0.15435 -1.46296,-0.4875 -1.5889,-0.54656 -0.01,-0.004 0.18081,-1.08365 0.42319,-2.39807 0.24239,-1.31442 0.44426,-2.41339 0.44864,-2.44215 0.006,-0.0425 -4.32274,-2.54826 -4.43122,-2.56475 -0.0178,-0.003 -0.86832,0.66282 -1.89009,1.4789 l -1.85775,1.48381 -0.46527,-0.43233 c -0.7276,-0.67611 -1.30589,-1.2831 -2.00986,-2.10959 l -0.64936,-0.76237 1.53392,-2.02666 c 0.84365,-1.11468 1.54848,-2.05633 1.5663,-2.09259 0.0414,-0.0843 -0.0772,-0.31953 -0.56968,-1.13094 -0.45344,-0.74693 -0.94243,-1.7055 -1.27243,-2.49429 l -0.24235,-0.57931 -2.51599,0.4374 c -1.3838,0.24057 -2.53049,0.42858 -2.5482,0.41782 -0.0363,-0.022 -0.94774,-3.6949 -1.068,-4.30377 z m 10.61663,0.87986 c 0.61039,1.94625 1.69921,3.81659 3.13602,5.38677 0.55278,0.60409 1.30894,1.30451 1.91669,1.77539 0.59427,0.46045 1.97293,1.30193 2.6686,1.6288 1.48441,0.69748 3.52021,1.23253 5.14461,1.35211 1.86314,0.13714 3.63223,-0.0748 5.608,-0.67174 1.31333,-0.39687 2.30723,-0.8408 3.43069,-1.5325 1.387,-0.85395 2.94794,-2.26612 3.94461,-3.56866 0.46672,-0.60995 1.30404,-1.99279 1.61601,-2.66885 0.93823,-2.03318 1.40458,-4.17799 1.39327,-6.40774 -0.008,-1.52205 -0.26655,-3.05256 -0.80084,-4.73576 -0.87532,-2.75767 -2.6638,-5.2852 -5.05065,-7.13786 -0.58817,-0.45656 -1.96809,-1.29868 -2.6632,-1.6253 -1.48441,-0.69749 -3.52021,-1.23254 -5.14462,-1.35211 -1.86314,-0.13714 -3.63222,0.0748 -5.60798,0.67174 -1.31334,0.39687 -2.30724,0.84081 -3.4307,1.5325 -1.387,0.85394 -2.94794,2.26611 -3.9446,3.56866 -0.4671,0.61043 -1.3036,1.9921 -1.61919,2.67444 -0.69345,1.49929 -1.18391,3.31018 -1.32945,4.90861 -0.0697,0.76558 -0.0761,1.96228 -0.0142,2.66609 0.0843,0.95955 0.38409,2.3783 0.74697,3.53541 z m 0.42466,-3.20653 c -0.28398,-2.38663 0.125,-4.93427 1.17145,-7.29739 0.26434,-0.59693 1.14765,-2.06505 1.57748,-2.62188 1.01388,-1.31344 2.51948,-2.63499 3.94924,-3.46649 1.23722,-0.71953 2.10524,-1.0611 3.66011,-1.44028 1.55488,-0.37924 2.4827,-0.47556 3.91228,-0.40637 1.65202,0.0799 3.59698,0.56004 5.10168,1.25928 0.63792,0.29644 2.09792,1.1931 2.60737,1.60133 2.04274,1.63683 3.56472,3.70322 4.41638,5.9961 0.27173,0.73156 0.71305,2.54119 0.80859,3.31572 0.2995,2.42754 -0.10036,4.9626 -1.16024,7.35605 -0.26433,0.59692 -1.14763,2.06504 -1.57747,2.62189 -1.01388,1.31341 -2.51947,2.63498 -3.94923,3.46648 -1.23722,0.71953 -2.10524,1.06109 -3.66013,1.44028 -1.55486,0.37923 -2.48269,0.47556 -3.91226,0.40637 -1.65204,-0.08 -3.59699,-0.56004 -5.10168,-1.25928 -0.63792,-0.29644 -2.09792,-1.19311 -2.60738,-1.60133 -2.04273,-1.63683 -3.56472,-3.70321 -4.41638,-5.9961 -0.25656,-0.69073 -0.73461,-2.65849 -0.81981,-3.37438 z m 7.55067,-2.86208 c 0.61953,0.38435 1.18086,0.71425 1.24743,0.73311 0.0883,0.025 0.26157,-0.004 0.64107,-0.10918 0.46824,-0.12916 0.52606,-0.15476 0.57948,-0.26037 0.0438,-0.0861 0.19258,-0.18339 0.56454,-0.36902 0.59534,-0.29712 0.78781,-0.43323 0.95996,-0.67898 0.14149,-0.20198 0.16676,-0.44222 0.13773,-1.30885 -0.009,-0.27047 -0.001,-0.53795 0.0173,-0.59443 0.0425,-0.12905 -0.1132,-1.24236 -0.18316,-1.31002 -0.0285,-0.0276 -0.53728,-0.33869 -1.13065,-0.69144 -0.91509,-0.54399 -1.106,-0.63989 -1.25766,-0.63172 -0.12442,0.007 -0.42378,0.11765 -0.98348,0.36491 -0.75419,0.33305 -0.80315,0.36146 -0.78098,0.4524 0.0166,0.0678 0.38865,0.31214 1.23677,0.8119 0.76073,0.44828 1.22098,0.74718 1.23425,0.80157 0.0126,0.052 -0.16051,0.38485 -0.43214,0.83065 -0.37968,0.62315 -0.46834,0.7405 -0.54605,0.72273 -0.051,-0.0116 -0.60537,-0.34772 -1.23192,-0.74678 -0.62655,-0.39906 -1.15451,-0.72181 -1.17326,-0.71724 -0.0578,0.0144 -0.0675,0.0922 -0.10104,0.81713 -0.0189,0.40841 -0.01,0.80369 0.0214,0.94374 l 0.0539,0.24099 z m 6.77161,2.75936 c 1.62342,1.02265 2.96599,1.84485 2.98348,1.82709 0.0175,-0.0177 -0.007,-0.19053 -0.0539,-0.38399 -0.0472,-0.19344 -0.0888,-0.45859 -0.0924,-0.58919 -0.008,-0.29394 0.17351,-0.80779 0.34848,-0.98535 0.0782,-0.0794 0.36248,-0.24002 0.70575,-0.39884 0.31612,-0.14627 0.57074,-0.28182 0.56578,-0.30133 -0.014,-0.0531 -6.78723,-4.20496 -6.80709,-4.17228 -0.009,0.0155 -0.003,0.30812 0.0139,0.65017 0.0354,0.70914 0.0196,0.8096 -0.17154,1.09092 -0.19689,0.28973 -0.23262,0.31433 -0.76074,0.5239 -0.26138,0.1038 -0.50513,0.20927 -0.54166,0.23451 -0.0804,0.0557 -0.15477,0.007 3.80998,2.50432 z m 4.58399,4.1222 c 0.86675,0.5123 1.15823,0.66194 1.29574,0.66522 0.14214,0.003 0.31948,-0.0591 0.89205,-0.31375 0.92029,-0.40958 0.90653,-0.40238 0.89072,-0.4672 -0.007,-0.0306 -0.57449,-0.39599 -1.26017,-0.81245 -1.00483,-0.61032 -1.24584,-0.77591 -1.24221,-0.8535 0.007,-0.1586 0.84067,-1.5042 0.94762,-1.53029 0.0642,-0.0155 0.45511,0.20727 1.23253,0.70281 0.6262,0.39912 1.17239,0.72374 1.21377,0.72135 0.0602,-0.003 0.0802,-0.16405 0.10012,-0.80738 0.0137,-0.44168 0.009,-0.86916 -0.0109,-0.94996 -0.0385,-0.1583 -0.13606,-0.22688 -1.70774,-1.20255 l -0.69628,-0.43221 -0.58955,0.14383 c -0.53339,0.13002 -0.59193,0.1529 -0.61422,0.23943 -0.0182,0.0707 -0.15351,0.16068 -0.51943,0.34545 -0.61495,0.31052 -0.78214,0.41881 -0.96583,0.62553 -0.18716,0.21067 -0.21776,0.40286 -0.19703,1.23722 0.009,0.37368 0.001,0.71124 -0.0176,0.75013 -0.019,0.0388 -10e-4,0.31129 0.0392,0.60539 0.0405,0.29407 0.0776,0.56559 0.0823,0.60339 0.005,0.0378 0.51194,0.36616 1.12701,0.72971 z"
         style="fill:#0000ff;stroke-width:0.04587256" />
      <path
         inkscape:connector-curvature="0"
         id="path3787"
         d="m 125.45444,131.20081 c -0.30377,-0.0343 -0.55426,-0.0685 -0.55665,-0.0759 -0.003,-0.007 -0.0476,-1.59429 -0.10037,-3.52631 -0.0528,-1.932 -0.10531,-3.52302 -0.11667,-3.5356 -0.0114,-0.0126 -0.3584,-0.10651 -0.77119,-0.20884 -1.21411,-0.30083 -2.45558,-0.70944 -3.77737,-1.24328 -1.02833,-0.4153 -1.25204,-0.48655 -1.32166,-0.42092 -0.0461,0.0434 -1.13059,1.22228 -2.40997,2.6196 -1.27939,1.39732 -2.33858,2.55326 -2.35375,2.56876 -0.0437,0.0445 -2.29885,-1.29664 -3.10296,-1.84545 -1.03837,-0.70868 -2.14869,-1.55064 -2.1449,-1.62648 0.002,-0.0356 0.67404,-1.27356 1.49391,-2.75116 0.81985,-1.47759 1.48428,-2.70639 1.47649,-2.73064 -0.007,-0.0242 -0.99537,-1.28735 -2.19463,-2.80688 l -2.18045,-2.76278 -0.4721,0.17805 c -0.25964,0.0979 -1.64494,0.65151 -3.07843,1.23021 -1.4335,0.57868 -2.6319,1.0504 -2.66313,1.04825 -0.0718,-0.005 -0.71042,-1.09885 -1.260882,-2.15981 -0.398436,-0.76799 -1.480183,-3.2381 -1.471732,-3.36064 0.0021,-0.0311 1.254508,-0.95457 2.783034,-2.05211 1.52852,-1.09753 2.77018,-2.02537 2.75922,-2.06188 -0.0109,-0.0365 -0.26124,-1.45394 -0.55621,-3.14984 -0.29498,-1.69591 -0.54246,-3.091968 -0.54997,-3.102359 -0.007,-0.01083 -1.51387,-0.298994 -3.347466,-0.641329 -1.833611,-0.342346 -3.355032,-0.646472 -3.380942,-0.675844 -0.06294,-0.0713 0.17872,-4.160212 0.311193,-5.263813 l 0.104877,-0.873945 3.430858,-0.198745 3.43085,-0.198754 1.03347,-3.155152 c 0.58261,-1.778681 1.0105,-3.178217 0.9808,-3.207997 -0.029,-0.02909 -1.161,-1.000302 -2.51563,-2.158313 -1.35461,-1.15801 -2.47193,-2.11324 -2.48291,-2.122733 -0.0111,-0.0095 0.33759,-0.609768 0.77461,-1.333943 0.81456,-1.349773 1.63598,-2.51789 2.57878,-3.667263 l 0.53423,-0.651266 0.43759,0.27193 c 0.24068,0.149563 1.60377,0.989313 3.02909,1.866114 l 2.59149,1.594182 0.20778,-0.219053 c 0.80156,-0.845002 2.95418,-2.705964 3.80088,-3.285902 0.23323,-0.159751 0.4246,-0.320681 0.42527,-0.357618 5.5e-4,-0.03695 -0.53421,-1.559803 -1.18862,-3.384141 l -1.18983,-3.316977 0.66904,-0.381331 c 1.22674,-0.699212 2.76272,-1.435904 4.2767,-2.051218 0.8244,-0.335046 1.5321,-0.606887 1.57268,-0.604088 0.0405,0.0028 0.86643,1.351187 1.83521,2.996417 0.9688,1.645231 1.77571,3.015094 1.79313,3.044137 0.0174,0.02905 0.46724,-0.05946 0.99958,-0.196671 1.14946,-0.296281 2.33337,-0.524576 3.47726,-0.670529 0.45854,-0.05851 0.845,-0.116084 0.85879,-0.127949 0.0139,-0.01187 0.40779,-1.589793 0.87555,-3.506506 l 0.85045,-3.484934 0.70219,0.0084 c 0.85845,0.01032 5.02119,0.29401 5.19817,0.354279 0.11682,0.03977 0.15938,0.338584 0.50805,3.567467 0.20931,1.938235 0.38888,3.534136 0.39906,3.546449 0.0101,0.0123 0.42211,0.118732 0.91537,0.236505 1.19269,0.284746 2.67991,0.763863 3.81219,1.228126 0.50794,0.208266 0.92891,0.372297 0.93552,0.364511 0.27489,-0.324631 4.6346,-5.195786 4.7145,-5.267609 0.11183,-0.100497 0.17317,-0.07217 1.46337,0.67598 1.40375,0.813987 2.60405,1.604725 3.65449,2.407524 0.61359,0.468939 0.61731,0.47342 0.52879,0.63846 -0.049,0.09142 -0.81322,1.473053 -1.69821,3.07031 l -1.60909,2.904101 0.27808,0.301842 c 0.15294,0.166013 0.54057,0.560207 0.86139,0.875987 0.77941,0.767152 2.31311,2.550093 2.91512,3.388851 0.2674,0.372554 0.50816,0.678887 0.53503,0.680741 0.0269,0.0019 1.48776,-0.63459 3.24642,-1.414317 1.75866,-0.779727 3.21325,-1.392414 3.23241,-1.361527 0.82029,1.322109 1.57132,2.779829 2.20958,4.288697 l 0.52125,1.232273 -2.92048,1.954937 -2.92047,1.954939 0.0904,0.422402 c 0.62736,2.929788 1.19482,5.504039 1.21942,5.531938 0.017,0.01912 1.55377,0.401462 3.4152,0.849493 1.86144,0.44802 3.40481,0.837699 3.42973,0.865931 0.0524,0.05924 -0.34714,6.014773 -0.40672,6.066193 -0.0218,0.0187 -1.5562,0.11203 -3.40974,0.20727 -1.85354,0.0952 -3.38512,0.18606 -3.4035,0.20186 -0.0542,0.0466 -2.01314,5.8898 -2.00189,5.97133 0.005,0.0409 1.15872,1.06282 2.56237,2.2708 1.40367,1.20797 2.55913,2.21991 2.5677,2.24873 0.0264,0.0888 -1.5614,2.70459 -2.12281,3.49726 -0.41036,0.5794 -1.25478,1.70152 -1.38535,1.84089 -0.01,0.0106 -1.35327,-0.68542 -2.9851,-1.54683 -1.63183,-0.86142 -2.9965,-1.58063 -3.0326,-1.59826 -0.0533,-0.0261 -5.16842,4.56751 -5.23552,4.70184 -0.0105,0.022 0.51076,1.40541 1.15947,3.0742 l 1.17945,3.03415 -0.76471,0.42595 c -1.1959,0.66612 -2.23817,1.16665 -3.62248,1.73956 l -1.27692,0.52846 -2.03073,-2.83816 c -1.11692,-1.56099 -2.06377,-2.86944 -2.10412,-2.90767 -0.0938,-0.0889 -0.45363,-0.0323 -1.7296,0.27168 -1.17459,0.27988 -2.64313,0.51815 -3.82126,0.61999 l -0.86529,0.0748 -0.47568,3.45619 c -0.26163,1.9009 -0.49338,3.4714 -0.51499,3.48998 -0.0443,0.0381 -5.26861,-0.3012 -6.12179,-0.39763 z m 5.60123,-13.45186 c 2.82169,0.014 5.74342,-0.62623 8.41491,-1.84403 1.0278,-0.46851 2.2677,-1.16172 3.14282,-1.75709 0.85576,-0.5822 2.54204,-2.02698 3.26407,-2.79661 1.54065,-1.64222 3.09778,-4.06954 3.93495,-6.13399 0.9602,-2.36789 1.4208,-4.75834 1.46009,-7.577713 0.0261,-1.874134 -0.14355,-3.35205 -0.58568,-5.101514 -0.54584,-2.159843 -1.75501,-4.777942 -3.05564,-6.616115 -0.60905,-0.860763 -2.08224,-2.5249 -2.8432,-3.211735 -2.28853,-2.06559 -4.92162,-3.563408 -7.86654,-4.474831 -2.01023,-0.622147 -4.13666,-0.921018 -6.57964,-0.924773 -4.0025,-0.0062 -8.08348,1.271631 -11.52487,3.608524 -0.84804,0.575871 -2.53573,2.02202 -3.25716,2.791026 -1.54067,1.642225 -3.09778,4.069549 -3.93496,6.134013 -0.9602,2.367867 -1.42081,4.758312 -1.4601,7.577699 -0.0261,1.874124 0.14356,3.352049 0.58569,5.101529 0.54584,2.15983 1.755,4.77792 3.05564,6.61609 0.60954,0.86146 2.08152,2.52405 2.84925,3.21821 1.68692,1.52525 3.86962,2.91575 5.91645,3.76909 0.98034,0.40872 2.55568,0.9141 3.5096,1.12592 1.30056,0.2888 3.29674,0.48795 4.97432,0.4963 z m -4.05054,-1.88455 c -3.26585,-0.62173 -6.45412,-2.21219 -9.13245,-4.55568 -0.67653,-0.59197 -2.24294,-2.35136 -2.79738,-3.14207 -1.3078,-1.86509 -2.42062,-4.37352 -2.91898,-6.5797 -0.43124,-1.909089 -0.51854,-3.180658 -0.36812,-5.361807 0.15042,-2.18116 0.41145,-3.428707 1.10069,-5.260527 0.79649,-2.116877 2.24312,-4.448787 3.79457,-6.116687 0.65774,-0.707113 2.45084,-2.234833 3.20223,-2.728322 3.01286,-1.978703 6.37429,-3.101238 9.75398,-3.25729 1.07831,-0.04979 3.64913,0.127503 4.7104,0.32485 3.32628,0.618526 6.50179,2.191878 9.21448,4.56544 0.67655,0.591966 2.24294,2.351372 2.79739,3.142082 1.30779,1.865087 2.42062,4.373509 2.91897,6.579684 0.43124,1.909093 0.51854,3.180663 0.36812,5.361822 -0.15042,2.181145 -0.41145,3.428695 -1.10069,5.260515 -0.79648,2.11688 -2.24312,4.44879 -3.79456,6.1167 -0.65775,0.70711 -2.45084,2.23482 -3.20224,2.72831 -3.01285,1.97871 -6.37427,3.10125 -9.75397,3.25729 -1.01813,0.047 -3.81284,-0.14812 -4.79245,-0.33452 z m 12.33644,-5.74611 c 0.3656,-0.15283 1.12981,-0.5867 1.36248,-0.77353 0.29417,-0.2362 0.72874,-0.81282 0.97537,-1.29418 0.17639,-0.34428 0.2062,-0.47293 0.24985,-1.07844 0.0445,-0.61601 0.0346,-0.72558 -0.0941,-1.05317 -0.0791,-0.2011 -0.20688,-0.47255 -0.28412,-0.60321 -0.0773,-0.13068 -1.44651,-1.72566 -3.04281,-3.54445 l -2.90235,-3.306859 -0.84603,-0.05835 c -0.76003,-0.05241 -0.86956,-0.0741 -1.07748,-0.214038 -0.51831,-0.348657 -0.97788,-0.862433 -0.9631,-1.076724 0.0119,-0.172111 0.18155,-0.700931 0.31434,-0.979675 0.0515,-0.107946 0.0621,-0.218556 0.0305,-0.311968 -0.0521,-0.152419 -0.39208,-0.553368 -0.50512,-0.595635 -0.0365,-0.01364 -0.22302,0.128831 -0.41452,0.316601 -0.19149,0.18778 -0.36428,0.338579 -0.38397,0.335126 -0.0197,-0.0034 -0.13917,0.0907 -0.2655,0.20933 l -0.22968,0.215618 -2.65863,-2.847553 c -3.31312,-3.548535 -3.28343,-3.514252 -3.76028,-4.342421 -0.21677,-0.376527 -0.43619,-0.723425 -0.48755,-0.770891 -0.12401,-0.114604 -1.97831,-1.396933 -2.16311,-1.495893 -0.13266,-0.07099 -0.18581,-0.0397 -0.6397,0.377115 -0.27226,0.250021 -0.5054,0.486802 -0.5181,0.526171 -0.0128,0.03931 0.18279,0.578958 0.43443,1.199071 0.25162,0.620121 0.50712,1.265178 0.56774,1.433468 0.0747,0.207481 0.14811,0.308571 0.22787,0.314072 0.15751,0.01086 1.25815,0.845445 1.48876,1.128893 0.10089,0.123985 0.75554,0.853985 1.45478,1.622214 0.69925,0.76824 1.90279,2.104962 2.67452,2.970499 l 1.40317,1.573719 -0.5884,0.508352 c -0.32363,0.279587 -0.59661,0.544382 -0.60664,0.588406 -0.0101,0.04411 -0.0328,0.139187 -0.0506,0.211452 -0.0222,0.09039 0.0555,0.23784 0.24889,0.472564 0.15465,0.187645 0.30426,0.342756 0.33246,0.344696 0.0282,0.002 0.17969,-0.0755 0.33663,-0.172213 0.58359,-0.35946 0.95143,-0.300262 1.46955,0.236433 0.54092,0.56035 0.7131,1.13267 0.55898,1.85805 -0.16596,0.78116 -0.35565,0.50295 2.69813,3.95715 3.07631,3.4797 3.3087,3.71067 4.08434,4.05944 0.38045,0.17106 1.22695,0.20385 1.5692,0.0608 z"
         style="fill:#00fe00;stroke-width:0.06306273" />
    </g>
  </g>
</svg>
